<svg width="24" height="24" viewBox="0 0 24 24" fill="none" xmlns="http://www.w3.org/2000/svg">
<path d="M12.22 2H11.78L10.99 4.47L9.44 5.11L7.26 3.65L6.64 4.27L8.1 6.45L7.46 8L4.99 8.79V9.23L7.46 10.02L8.1 11.57L6.64 13.75L7.26 14.37L9.44 12.91L10.99 13.55L11.78 16H12.22L13.01 13.55L14.56 12.91L16.74 14.37L17.36 13.75L15.9 11.57L16.54 10.02L19.01 9.23V8.79L16.54 8L15.9 6.45L17.36 4.27L16.74 3.65L14.56 5.11L13.01 4.47L12.22 2Z" stroke="currentColor" stroke-width="2" stroke-linecap="round" stroke-linejoin="round"/>
<circle cx="12" cy="9" r="3" stroke="currentColor" stroke-width="2" stroke-linecap="round" stroke-linejoin="round"/>
</svg>
