<svg width="19" height="19" viewBox="0 0 19 19" fill="none" xmlns="http://www.w3.org/2000/svg">
<path d="M18.75 1.125V4.875C18.75 5.17337 18.6315 5.45952 18.4205 5.6705C18.2095 5.88147 17.9234 6 17.625 6C17.3266 6 17.0405 5.88147 16.8295 5.6705C16.6185 5.45952 16.5 5.17337 16.5 4.875V2.25H13.875C13.5766 2.25 13.2905 2.13147 13.0795 1.9205C12.8685 1.70952 12.75 1.42337 12.75 1.125C12.75 0.826631 12.8685 0.540483 13.0795 0.329505C13.2905 0.118526 13.5766 0 13.875 0H17.625C17.9234 0 18.2095 0.118526 18.4205 0.329505C18.6315 0.540483 18.75 0.826631 18.75 1.125ZM4.875 16.5H2.25V13.875C2.25 13.5766 2.13147 13.2905 1.9205 13.0795C1.70952 12.8685 1.42337 12.75 1.125 12.75C0.826631 12.75 0.540483 12.8685 0.329505 13.0795C0.118526 13.2905 0 13.5766 0 13.875V17.625C0 17.9234 0.118526 18.2095 0.329505 18.4205C0.540483 18.6315 0.826631 18.75 1.125 18.75H4.875C5.17337 18.75 5.45952 18.6315 5.6705 18.4205C5.88147 18.2095 6 17.9234 6 17.625C6 17.3266 5.88147 17.0405 5.6705 16.8295C5.45952 16.6185 5.17337 16.5 4.875 16.5ZM17.625 12.75C17.3266 12.75 17.0405 12.8685 16.8295 13.0795C16.6185 13.2905 16.5 13.5766 16.5 13.875V16.5H13.875C13.5766 16.5 13.2905 16.6185 13.0795 16.8295C12.8685 17.0405 12.75 17.3266 12.75 17.625C12.75 17.9234 12.8685 18.2095 13.0795 18.4205C13.2905 18.6315 13.5766 18.75 13.875 18.75H17.625C17.9234 18.75 18.2095 18.6315 18.4205 18.4205C18.6315 18.2095 18.75 17.9234 18.75 17.625V13.875C18.75 13.5766 18.6315 13.2905 18.4205 13.0795C18.2095 12.8685 17.9234 12.75 17.625 12.75ZM1.125 6C1.42337 6 1.70952 5.88147 1.9205 5.6705C2.13147 5.45952 2.25 5.17337 2.25 4.875V2.25H4.875C5.17337 2.25 5.45952 2.13147 5.6705 1.9205C5.88147 1.70952 6 1.42337 6 1.125C6 0.826631 5.88147 0.540483 5.6705 0.329505C5.45952 0.118526 5.17337 0 4.875 0H1.125C0.826631 0 0.540483 0.118526 0.329505 0.329505C0.118526 0.540483 0 0.826631 0 1.125V4.875C0 5.17337 0.118526 5.45952 0.329505 5.6705C0.540483 5.88147 0.826631 6 1.125 6ZM5.25 4.125H13.5C13.7984 4.125 14.0845 4.24353 14.2955 4.4545C14.5065 4.66548 14.625 4.95163 14.625 5.25V13.5C14.625 13.7984 14.5065 14.0845 14.2955 14.2955C14.0845 14.5065 13.7984 14.625 13.5 14.625H5.25C4.95163 14.625 4.66548 14.5065 4.4545 14.2955C4.24353 14.0845 4.125 13.7984 4.125 13.5V5.25C4.125 4.95163 4.24353 4.66548 4.4545 4.4545C4.66548 4.24353 4.95163 4.125 5.25 4.125ZM6.375 12.375H12.375V6.375H6.375V12.375Z" fill="#072E28"/>
</svg>
